<mxfile host="65bd71144e">
    <diagram id="oqh2K8x5jILwIFD9lVis" name="ページ1">
        <mxGraphModel dx="538" dy="371" grid="1" gridSize="10" guides="1" tooltips="1" connect="1" arrows="1" fold="1" page="1" pageScale="1" pageWidth="827" pageHeight="1169" math="0" shadow="0">
            <root>
                <mxCell id="0"/>
                <mxCell id="1" parent="0"/>
                <mxCell id="6" value="" style="rounded=1;whiteSpace=wrap;html=1;fillColor=#eeeeee;strokeColor=#36393d;arcSize=4;" parent="1" vertex="1">
                    <mxGeometry x="100" y="140" width="330" height="240" as="geometry"/>
                </mxCell>
                <mxCell id="14" value="&lt;div style=&quot;font-size: 16px;&quot;&gt;ロールを割り当てる権限&lt;/div&gt;" style="text;strokeColor=none;fillColor=none;html=1;fontSize=16;fontStyle=0;verticalAlign=top;align=left;rounded=1;fontColor=#000000;" parent="1" vertex="1">
                    <mxGeometry x="120" y="180" width="250" height="30" as="geometry"/>
                </mxCell>
                <mxCell id="16" value="所有者" style="text;html=1;strokeColor=none;fillColor=none;align=left;verticalAlign=middle;whiteSpace=wrap;rounded=0;fontSize=16;fontColor=#000000;fontStyle=1" parent="1" vertex="1">
                    <mxGeometry x="110" y="150" width="140" height="30" as="geometry"/>
                </mxCell>
                <mxCell id="23" value="" style="rounded=1;whiteSpace=wrap;html=1;fillColor=#eeeeee;strokeColor=#36393d;arcSize=4;" parent="1" vertex="1">
                    <mxGeometry x="110" y="220" width="310" height="150" as="geometry"/>
                </mxCell>
                <mxCell id="24" value="共同作成者" style="text;html=1;strokeColor=none;fillColor=none;align=left;verticalAlign=middle;whiteSpace=wrap;rounded=0;fontSize=16;fontColor=#000000;fontStyle=1" parent="1" vertex="1">
                    <mxGeometry x="120" y="230" width="140" height="30" as="geometry"/>
                </mxCell>
                <mxCell id="29" value="" style="edgeStyle=none;html=1;" parent="1" source="25" target="28" edge="1">
                    <mxGeometry relative="1" as="geometry"/>
                </mxCell>
                <mxCell id="25" value="&lt;div style=&quot;font-size: 16px;&quot;&gt;リソースの作成・編集・削除権限&lt;/div&gt;" style="text;strokeColor=none;fillColor=none;html=1;fontSize=16;fontStyle=0;verticalAlign=top;align=left;rounded=1;fontColor=#000000;" parent="1" vertex="1">
                    <mxGeometry x="125.63" y="260" width="254.37" height="30" as="geometry"/>
                </mxCell>
                <mxCell id="26" value="" style="rounded=1;whiteSpace=wrap;html=1;fillColor=#eeeeee;strokeColor=#36393d;arcSize=4;" parent="1" vertex="1">
                    <mxGeometry x="120" y="294" width="290" height="66" as="geometry"/>
                </mxCell>
                <mxCell id="27" value="閲覧者" style="text;html=1;strokeColor=none;fillColor=none;align=left;verticalAlign=middle;whiteSpace=wrap;rounded=0;fontSize=16;fontColor=#000000;fontStyle=1" parent="1" vertex="1">
                    <mxGeometry x="125.63481481481483" y="300" width="80.37037037037037" height="21.599999999999998" as="geometry"/>
                </mxCell>
                <mxCell id="28" value="&lt;div style=&quot;font-size: 16px;&quot;&gt;リソースを表示・閲覧する権限&lt;/div&gt;" style="text;strokeColor=none;fillColor=none;html=1;fontSize=16;fontStyle=0;verticalAlign=top;align=left;rounded=1;fontColor=#000000;" parent="1" vertex="1">
                    <mxGeometry x="131.58" y="321.6" width="238.42" height="28.4" as="geometry"/>
                </mxCell>
            </root>
        </mxGraphModel>
    </diagram>
</mxfile>